<?xml version="1.0" encoding="UTF-8" standalone="no"?>
<!-- Created with Inkscape (http://www.inkscape.org/) -->

<svg
   xmlns:dc="http://purl.org/dc/elements/1.1/"
   xmlns:cc="http://creativecommons.org/ns#"
   xmlns:rdf="http://www.w3.org/1999/02/22-rdf-syntax-ns#"
   xmlns:svg="http://www.w3.org/2000/svg"
   xmlns="http://www.w3.org/2000/svg"
   xmlns:sodipodi="http://sodipodi.sourceforge.net/DTD/sodipodi-0.dtd"
   xmlns:inkscape="http://www.inkscape.org/namespaces/inkscape"
   width="210mm"
   height="297mm"
   viewBox="0 0 744.09448819 1052.3622047"
   id="svg2"
   version="1.1"
   inkscape:version="0.91 r"
   sodipodi:docname="sepa-logo.svg">
  <defs
     id="defs4" />
  <sodipodi:namedview
     id="base"
     pagecolor="#ffffff"
     bordercolor="#666666"
     borderopacity="1.0"
     inkscape:pageopacity="0.0"
     inkscape:pageshadow="2"
     inkscape:zoom="3.959798"
     inkscape:cx="298.48407"
     inkscape:cy="476.13295"
     inkscape:document-units="px"
     inkscape:current-layer="layer1"
     showgrid="false"
     inkscape:window-width="1920"
     inkscape:window-height="1003"
     inkscape:window-x="0"
     inkscape:window-y="24"
     inkscape:window-maximized="1" />
  <metadata
     id="metadata7">
    <rdf:RDF>
      <cc:Work
         rdf:about="">
        <dc:format>image/svg+xml</dc:format>
        <dc:type
           rdf:resource="http://purl.org/dc/dcmitype/StillImage" />
        <dc:title></dc:title>
      </cc:Work>
    </rdf:RDF>
  </metadata>
  <g
     inkscape:label="Layer 1"
     inkscape:groupmode="layer"
     id="layer1">
    <g
       style="font-style:normal;font-weight:normal;font-size:70.7995224px;line-height:125%;font-family:Sans;letter-spacing:0px;word-spacing:0px;fill:#0066ff;fill-opacity:1;stroke:none;stroke-width:1px;stroke-linecap:butt;stroke-linejoin:miter;stroke-opacity:1"
       id="text3336"
       inkscape:export-xdpi="394.04999"
       inkscape:export-ydpi="394.04999">
      <path
         d="m 220.43121,570.65987 -34.40857,0 c -0.80239,0 -1.43959,0.0944 -1.91159,0.28319 -0.42479,0.1416 -0.77879,0.354 -1.06199,0.6372 -0.66079,0.66079 -0.99119,1.48679 -0.99119,2.47798 0,1.03839 0.4012,1.88799 1.20359,2.54879 0.28319,0.23599 0.61359,0.42479 0.99119,0.56639 0.4248,0.0944 1.0148,0.1416 1.76999,0.1416 l 21.02746,0 c 2.69038,0 4.95596,0.4012 6.79675,1.20359 1.88799,0.7552 3.46918,1.79359 4.74357,3.11518 1.27439,1.32159 2.26559,2.83198 2.97358,4.53117 0.75519,1.69919 1.13279,3.49278 1.13279,5.38077 0,1.74639 -0.3304,3.42197 -0.99119,5.02676 -0.6136,1.60479 -1.46319,3.04438 -2.54878,4.31877 -1.32159,1.51039 -2.97358,2.71399 -4.95597,3.61078 -1.93519,0.89679 -4.31877,1.34519 -7.15075,1.34519 l -38.2991,0 0,-12.24832 36.03351,0 c 0.99119,0 1.74639,-0.0944 2.26559,-0.2832 0.56639,-0.23599 1.01479,-0.54279 1.34519,-0.92039 0.51919,-0.61359 0.77879,-1.34519 0.77879,-2.19479 0,-1.03839 -0.3304,-1.88798 -0.99119,-2.54878 -0.3304,-0.37759 -0.7552,-0.63719 -1.27439,-0.77879 -0.472,-0.1888 -1.18,-0.2832 -2.12399,-0.2832 l -19.46987,0 c -3.20957,0 -5.80555,-0.3776 -7.78794,-1.13279 -1.93519,-0.8024 -3.53998,-1.86439 -4.81437,-3.18598 -1.27439,-1.32159 -2.26559,-2.80838 -2.97358,-4.46037 -0.70799,-1.69919 -1.06199,-3.53997 -1.06199,-5.52236 0,-1.93519 0.354,-3.75238 1.06199,-5.45157 0.75519,-1.69919 1.76999,-3.20958 3.04438,-4.53117 1.27439,-1.32159 2.87918,-2.35998 4.81437,-3.11518 1.93519,-0.80239 4.50757,-1.20359 7.71714,-1.20359 l 35.11657,0 z"
         style="font-style:normal;font-variant:normal;font-weight:bold;font-stretch:normal;font-size:70.7995224px;line-height:125%;font-family:Nulshock;-inkscape-font-specification:'Nulshock, Bold';text-align:start;writing-mode:lr-tb;text-anchor:start;fill:#0066ff"
         id="path3363"
         inkscape:connector-curvature="0"
         sodipodi:nodetypes="cscssccsscscscccsccsccsccsscscscscscc" />
      <path
         d="m 278.16822,557.98675 0,12.67312 -36.39096,0 q -1.13279,0 -1.13279,1.20359 l 0,5.45156 37.31135,0 0,9.20394 -37.31135,0 0,5.80556 q 0,1.27439 1.13279,1.27439 l 36.39096,0 0,12.24832 -43.61251,0 q -6.72595,0 -6.72595,-6.65516 l 0,-34.76256 q 0,-6.44276 6.79675,-6.44276 l 43.54171,0 z"
         style="font-style:normal;font-variant:normal;font-weight:bold;font-stretch:normal;font-size:70.7995224px;line-height:125%;font-family:Nulshock;-inkscape-font-specification:'Nulshock, Bold';text-align:start;writing-mode:lr-tb;text-anchor:start;fill:#0066ff"
         id="path3365" />
      <path
         d="m 319.01401,557.98675 q 5.09757,0 8.49594,1.41599 3.46918,1.34519 5.87636,3.75238 2.47799,2.47798 3.89398,5.80556 1.41599,3.32758 1.41599,6.93835 0,3.18598 -1.13279,6.15956 -1.062,2.90278 -3.04438,5.30996 -2.47799,2.97358 -6.23036,4.74357 -3.75238,1.69919 -9.27474,1.69919 l -22.01865,0 0,12.03592 -12.81471,0 0,-44.8869 q 0,-2.97358 3.11518,-2.97358 l 31.71818,0 z m 0.2832,24.07184 q 2.12399,0 3.39838,-0.5664 1.34519,-0.63719 2.12398,-1.69919 1.1328,-1.48679 1.1328,-3.39837 0,-2.05319 -1.2036,-3.61078 -0.77879,-0.99119 -2.12398,-1.55759 -1.27439,-0.56639 -3.32758,-0.56639 l -21.38146,0 q -0.92039,0 -0.92039,0.99119 l 0,10.40753 22.30185,0 z"
         style="font-style:normal;font-variant:normal;font-weight:bold;font-stretch:normal;font-size:70.7995224px;line-height:125%;font-family:Nulshock;-inkscape-font-specification:'Nulshock, Bold';text-align:start;writing-mode:lr-tb;text-anchor:start;fill:#0066ff"
         id="path3367" />
      <path
         d="m 396.29611,603.72324 q 0.2832,0.5664 0.4248,1.062 0.2124,0.49559 0.354,1.06199 l -14.4431,0 q -0.1416,-0.4956 -0.2832,-0.8496 -0.1416,-0.42479 -0.2832,-0.77879 l -2.54878,-5.80556 -28.31981,0 -2.47798,5.73476 q -0.1416,0.4248 -0.2832,0.84959 -0.1416,0.4248 -0.2124,0.8496 l -14.7971,0 q 0.1416,-0.5664 0.2832,-1.06199 0.2124,-0.4956 0.49559,-1.062 l 17.13349,-37.94854 q 2.05318,-4.46037 5.38076,-6.65516 3.32758,-2.19478 8.49594,-2.19478 5.02677,0 8.35435,2.19478 3.39838,2.19479 5.45156,6.65516 l 17.27508,37.94854 z m -21.45225,-15.85909 -7.36315,-17.13348 q -0.354,-0.7788 -0.92039,-1.1328 -0.5664,-0.35399 -1.2744,-0.35399 -0.63719,0 -1.20359,0.35399 -0.56639,0.2832 -0.92039,1.1328 l -7.29235,17.13348 18.97427,0 z"
         style="font-style:normal;font-variant:normal;font-weight:bold;font-stretch:normal;font-size:70.7995224px;line-height:125%;font-family:Nulshock;-inkscape-font-specification:'Nulshock, Bold';text-align:start;writing-mode:lr-tb;text-anchor:start;fill:#0066ff"
         id="path3369" />
    </g>
  </g>
</svg>
