<?xml version="1.0" standalone="no"?>
<!DOCTYPE svg PUBLIC "-//W3C//DTD SVG 20010904//EN"
 "http://www.w3.org/TR/2001/REC-SVG-20010904/DTD/svg10.dtd">
<svg version="1.0" xmlns="http://www.w3.org/2000/svg"
 width="1280.000000pt" height="1010.000000pt" viewBox="0 0 1280.000000 1010.000000"
 preserveAspectRatio="xMidYMid meet">
<metadata>
Created by potrace 1.15, written by Peter Selinger 2001-2017
</metadata>
<g transform="translate(0.000000,1010.000000) scale(0.100000,-0.100000)"
fill="#000000" stroke="none">
<path d="M2080 10089 c-228 -24 -463 -92 -677 -194 -274 -131 -471 -272 -704
-504 -258 -259 -434 -501 -574 -793 -83 -174 -117 -285 -119 -393 -1 -79 2
-95 23 -129 31 -49 97 -81 150 -71 62 12 128 55 210 139 104 107 113 118 286
351 398 536 837 846 1390 981 294 71 642 87 970 44 206 -28 498 -100 665 -165
52 -20 103 -38 113 -38 14 -2 32 22 68 87 27 49 49 90 49 91 0 1 -57 41 -128
88 -402 268 -789 427 -1197 493 -111 18 -411 26 -525 13z"/>
<path d="M10227 10019 c-473 -39 -1029 -230 -1224 -422 -63 -61 -83 -100 -83
-159 0 -125 117 -180 337 -158 119 12 124 13 408 75 307 68 405 79 665 79 166
0 255 -5 340 -18 387 -60 738 -210 1067 -458 135 -101 366 -329 486 -478 117
-146 244 -335 317 -472 28 -54 56 -98 60 -98 5 0 46 14 92 30 46 17 88 32 94
34 8 3 1 45 -22 128 -355 1336 -1264 2022 -2537 1917z"/>
<path d="M9490 8674 c-312 -26 -570 -101 -840 -244 -434 -230 -833 -630 -1140
-1141 -404 -672 -644 -1494 -701 -2399 -15 -231 -6 -759 16 -965 95 -906 360
-1696 778 -2325 311 -467 687 -815 1101 -1020 210 -104 362 -154 596 -197 134
-25 476 -25 610 0 234 43 386 93 596 197 414 205 790 553 1101 1020 398 599
663 1360 762 2190 54 449 56 960 5 1415 -163 1475 -863 2720 -1813 3224 -214
113 -448 193 -661 225 -100 15 -334 26 -410 20z"/>
<path d="M2827 8235 c-696 -99 -1292 -554 -1696 -1292 -431 -785 -606 -1844
-485 -2923 79 -710 278 -1389 589 -2005 237 -471 470 -805 795 -1139 423 -434
896 -718 1375 -824 182 -41 238 -46 445 -46 222 1 350 18 528 69 1003 288
1733 1369 1907 2821 36 303 47 763 25 1069 -117 1625 -840 3086 -1898 3833
-310 219 -656 367 -1007 428 -119 21 -458 26 -578 9z"/>
</g>
</svg>
